<?xml version="1.0" encoding="UTF-8" standalone="no"?>
<!-- Created with Inkscape (http://www.inkscape.org/) -->

<svg
   xmlns:dc="http://purl.org/dc/elements/1.1/"
   xmlns:cc="http://creativecommons.org/ns#"
   xmlns:rdf="http://www.w3.org/1999/02/22-rdf-syntax-ns#"
   xmlns:svg="http://www.w3.org/2000/svg"
   xmlns="http://www.w3.org/2000/svg"
   xmlns:sodipodi="http://sodipodi.sourceforge.net/DTD/sodipodi-0.dtd"
   xmlns:inkscape="http://www.inkscape.org/namespaces/inkscape"
   width="210mm"
   height="297mm"
   viewBox="0 0 210 297"
   version="1.1"
   id="svg8"
   inkscape:version="0.92.2 (5c3e80d, 2017-08-06)"
   sodipodi:docname="modelo-favicon.svg">
  <defs
     id="defs2" />
  <sodipodi:namedview
     id="base"
     pagecolor="#ffffff"
     bordercolor="#666666"
     borderopacity="1.0"
     inkscape:pageopacity="0.0"
     inkscape:pageshadow="2"
     inkscape:zoom="1.1477708"
     inkscape:cx="-22.868841"
     inkscape:cy="857.49404"
     inkscape:document-units="mm"
     inkscape:current-layer="layer1"
     showgrid="false"
     inkscape:window-width="1366"
     inkscape:window-height="715"
     inkscape:window-x="-8"
     inkscape:window-y="-8"
     inkscape:window-maximized="1" />
  <metadata
     id="metadata5">
    <rdf:RDF>
      <cc:Work
         rdf:about="">
        <dc:format>image/svg+xml</dc:format>
        <dc:type
           rdf:resource="http://purl.org/dc/dcmitype/StillImage" />
        <dc:title></dc:title>
      </cc:Work>
    </rdf:RDF>
  </metadata>
  <g
     inkscape:label="Camada 1"
     inkscape:groupmode="layer"
     id="layer1">
    <path
       style="fill:#717174;stroke:none;stroke-width:0.26458332px;stroke-linecap:butt;stroke-linejoin:miter;stroke-opacity:1;fill-opacity:1"
       d="m 42.094583,92.506196 c 0,0 5.698218,6.861936 14.40606,0.280897 0,0 7.343478,-5.176549 -2.688596,-8.667711 0,0 -10.553742,-3.089879 -11.637206,-6.982324 0,0 -1.565004,-4.614754 2.327441,-10.513614 0,0 -0.642053,6.581041 5.296935,8.346686 5.938988,1.765645 9.068995,2.207056 9.068995,2.207056 0,0 8.02566,1.444619 9.67092,5.818604 0,0 1.805773,5.056165 -6.661297,10.152459 0,0 -5.056166,3.852316 -13.121954,4.253599 0,0 -5.979118,-0.642053 -6.661298,-4.895652 z"
       id="path858"
       inkscape:connector-curvature="0"
       inkscape:export-xdpi="96"
       inkscape:export-ydpi="96" />
    <path
       inkscape:connector-curvature="0"
       id="path860"
       d="m 72.161728,59.760686 c 0,0 -5.698218,-6.861936 -14.40606,-0.280897 0,0 -7.343478,5.176549 2.688596,8.667711 0,0 10.553742,3.089879 11.637206,6.982324 0,0 1.565004,4.614754 -2.327441,10.513614 0,0 0.642053,-6.581041 -5.296935,-8.346686 -5.938988,-1.765645 -9.068995,-2.207056 -9.068995,-2.207056 0,0 -8.02566,-1.444619 -9.67092,-5.818604 0,0 -1.805773,-5.056165 6.661297,-10.152459 0,0 5.056166,-3.852316 13.121954,-4.253599 0,0 5.979118,0.642053 6.661298,4.895652 z"
       style="fill:#adb6b7;fill-opacity:1;stroke:none;stroke-width:0.26458332px;stroke-linecap:butt;stroke-linejoin:miter;stroke-opacity:1"
       inkscape:export-xdpi="96"
       inkscape:export-ydpi="96" />
    <path
       style="opacity:0.02000002;fill:#ececec;fill-opacity:1;stroke:none;stroke-width:2.08442402;stroke-linecap:round;stroke-linejoin:miter;stroke-miterlimit:4;stroke-dasharray:none;stroke-dashoffset:0;stroke-opacity:1;paint-order:normal"
       d="m 361.2694,197.36965 c -1.43977,-0.91332 0.93849,-3.09139 3.65976,-3.35172 1.00475,-0.0961 2.92697,-0.35805 4.27159,-0.58208 1.63017,-0.2716 2.31964,-0.0682 2.06923,0.61039 -0.20655,0.55974 -0.81661,0.91969 -1.3557,0.79989 -0.53909,-0.1198 -0.98016,0.17425 -0.98016,0.65344 0,0.47919 -0.41521,0.87126 -0.92267,0.87126 -0.50747,0 -0.63271,-0.46917 -0.27831,-1.0426 0.35439,-0.57343 -0.56513,-0.18137 -2.0434,0.87125 -3.04873,2.17088 -2.90342,2.13242 -4.42034,1.17017 z"
       id="path873"
       inkscape:connector-curvature="0"
       transform="scale(0.26458333)" />
  </g>
</svg>
